<?xml version="1.0" encoding="UTF-8" standalone="yes"?>
<svg version="1.1" width="64" height="64" color-interpolation="linearRGB"
     xmlns:svg="http://www.w3.org/2000/svg" xmlns="http://www.w3.org/2000/svg">
 <g>
  <path style="fill:#ffe4c4"
        d="M16.56 24.27C18.1 28 16.89 32.03 13.87 33.27C10.85 34.51 7.16 32.5 5.63 28.76C4.1 25.03 5.3 21 8.32 19.76C11.34 18.52 15.03 20.54 16.56 24.27z"
        transform="matrix(1.1458,0,0,1.9005,-4.6675,-28.8174)"
  />
  <path style="fill:none; stroke:#000000; stroke-width:0.7955"
        d="M16.56 24.27C18.1 28 16.89 32.03 13.87 33.27C10.85 34.51 7.16 32.5 5.63 28.76C4.1 25.03 5.3 21 8.32 19.76C11.34 18.52 15.03 20.54 16.56 24.27z"
        transform="matrix(1.1458,0,0,1.9005,-4.6675,-28.8174)"
  />
  <path style="fill:#ffe4c4"
        d="M14.67 25.05C15.68 27.49 14.89 30.12 12.91 30.94C10.94 31.75 8.52 30.43 7.52 27.99C6.52 25.55 7.3 22.91 9.28 22.1C11.26 21.29 13.67 22.61 14.67 25.05z"
        transform="matrix(1.1458,0,0,1.9005,-4.6675,-28.8174)"
  />
  <path style="fill:none; stroke:#000000; stroke-width:0.3134"
        d="M14.67 25.05C15.68 27.49 14.89 30.12 12.91 30.94C10.94 31.75 8.52 30.43 7.52 27.99C6.52 25.55 7.3 22.91 9.28 22.1C11.26 21.29 13.67 22.61 14.67 25.05z"
        transform="matrix(1.1458,0,0,1.9005,-4.6675,-28.8174)"
  />
  <path style="fill:#ffe4c4"
        d="M47.43 24.27C45.89 28 47.1 32.03 50.12 33.27C53.14 34.51 56.83 32.5 58.36 28.76C59.89 25.03 58.69 21 55.67 19.76C52.65 18.52 48.96 20.54 47.43 24.27z"
        transform="matrix(1.1458,0,0,1.9005,-4.6675,-28.8174)"
  />
  <path style="fill:none; stroke:#000000; stroke-width:0.7955"
        d="M47.43 24.27C45.89 28 47.1 32.03 50.12 33.27C53.14 34.51 56.83 32.5 58.36 28.76C59.89 25.03 58.69 21 55.67 19.76C52.65 18.52 48.96 20.54 47.43 24.27z"
        transform="matrix(1.1458,0,0,1.9005,-4.6675,-28.8174)"
  />
  <path style="fill:#ffe4c4"
        d="M49.32 25.05C48.31 27.49 49.1 30.12 51.08 30.94C53.05 31.75 55.47 30.43 56.47 27.99C57.47 25.55 56.69 22.91 54.71 22.1C52.73 21.29 50.32 22.61 49.32 25.05z"
        transform="matrix(1.1458,0,0,1.9005,-4.6675,-28.8174)"
  />
  <path style="fill:none; stroke:#000000; stroke-width:0.3134"
        d="M49.32 25.05C48.31 27.49 49.1 30.12 51.08 30.94C53.05 31.75 55.47 30.43 56.47 27.99C57.47 25.55 56.69 22.91 54.71 22.1C52.73 21.29 50.32 22.61 49.32 25.05z"
        transform="matrix(1.1458,0,0,1.9005,-4.6675,-28.8174)"
  />
  <path style="fill:#ffe4c4"
        d="M31.22 15.74C21.01 15.89 12.8 20.83 12.8 26.89C12.8 29.45 14.26 31.81 16.73 33.69C16.73 33.69 16.73 35.66 16.73 38.55C16.73 43.72 23.85 48.25 31.38 48.25C38.92 48.25 46.87 44.39 46.87 38.55C46.87 34.87 46.87 33.55 46.87 33.55C49.22 31.69 50.62 29.38 50.62 26.89C50.62 20.73 42.15 15.74 31.71 15.74C31.55 15.74 31.38 15.74 31.22 15.74z"
        transform="matrix(1.1458,0,0,1.9005,-4.6675,-28.8174)"
  />
  <path style="fill:none; stroke:#000000; stroke-width:0.7955"
        d="M31.22 15.74C21.01 15.89 12.8 20.83 12.8 26.89C12.8 29.45 14.26 31.81 16.73 33.69C16.73 33.69 16.73 35.66 16.73 38.55C16.73 43.72 23.85 48.25 31.38 48.25C38.92 48.25 46.87 44.39 46.87 38.55C46.87 34.87 46.87 33.55 46.87 33.55C49.22 31.69 50.62 29.38 50.62 26.89C50.62 20.73 42.15 15.74 31.71 15.74C31.55 15.74 31.38 15.74 31.22 15.74z"
        transform="matrix(1.1458,0,0,1.9005,-4.6675,-28.8174)"
  />
  <path style="fill:#000000"
        d="M27.23 29.43C26.84 31.31 24.32 32.38 21.6 31.82C18.88 31.25 16.99 29.27 17.39 27.38C17.78 25.5 20.3 24.43 23.01 24.99C25.73 25.56 27.62 27.54 27.23 29.43z"
        transform="matrix(1.1458,0,0,1.9005,-4.6675,-28.8174)"
  />
  <path style="fill:none; stroke:#f4a460; stroke-width:1.2954"
        d="M27.23 29.43C26.84 31.31 24.32 32.38 21.6 31.82C18.88 31.25 16.99 29.27 17.39 27.38C17.78 25.5 20.3 24.43 23.01 24.99C25.73 25.56 27.62 27.54 27.23 29.43z"
        transform="matrix(1.1458,0,0,1.9005,-4.6675,-28.8174)"
  />
  <path style="fill:#ffffff"
        d="M23.6 27.6C23.6 28.45 22.91 29.14 22.06 29.14C21.21 29.14 20.52 28.45 20.52 27.6C20.52 26.75 21.21 26.06 22.06 26.06C22.91 26.06 23.6 26.75 23.6 27.6z"
        transform="matrix(1.1458,0,0,1.9005,-4.6675,-28.8174)"
  />
  <path style="fill:none; stroke:#000000; stroke-width:1.2954"
        d="M23.6 27.6C23.6 28.45 22.91 29.14 22.06 29.14C21.21 29.14 20.52 28.45 20.52 27.6C20.52 26.75 21.21 26.06 22.06 26.06C22.91 26.06 23.6 26.75 23.6 27.6z"
        transform="matrix(1.1458,0,0,1.9005,-4.6675,-28.8174)"
  />
  <path style="fill:#000000"
        d="M36.19 29.43C36.58 31.31 39.1 32.38 41.82 31.82C44.54 31.25 46.42 29.27 46.03 27.38C45.64 25.5 43.12 24.43 40.4 24.99C37.68 25.56 35.8 27.54 36.19 29.43z"
        transform="matrix(1.1458,0,0,1.9005,-4.6675,-28.8174)"
  />
  <path style="fill:none; stroke:#f4a460; stroke-width:1.2954"
        d="M36.19 29.43C36.58 31.31 39.1 32.38 41.82 31.82C44.54 31.25 46.42 29.27 46.03 27.38C45.64 25.5 43.12 24.43 40.4 24.99C37.68 25.56 35.8 27.54 36.19 29.43z"
        transform="matrix(1.1458,0,0,1.9005,-4.6675,-28.8174)"
  />
  <path style="fill:#ffffff"
        d="M39.81 27.6C39.81 28.45 40.5 29.14 41.35 29.14C42.2 29.14 42.89 28.45 42.89 27.6C42.89 26.75 42.2 26.06 41.35 26.06C40.5 26.06 39.81 26.75 39.81 27.6z"
        transform="matrix(1.1458,0,0,1.9005,-4.6675,-28.8174)"
  />
  <path style="fill:none; stroke:#000000; stroke-width:1.2954"
        d="M39.81 27.6C39.81 28.45 40.5 29.14 41.35 29.14C42.2 29.14 42.89 28.45 42.89 27.6C42.89 26.75 42.2 26.06 41.35 26.06C40.5 26.06 39.81 26.75 39.81 27.6z"
        transform="matrix(1.1458,0,0,1.9005,-4.6675,-28.8174)"
  />
  <path style="fill:none; stroke:#8b4513; stroke-width:0.7955"
        d="M31.35 36.84C29.9 37.29 28.55 35.52 29.08 34.2
           M32.07 36.84C33.52 37.29 34.87 35.52 34.34 34.2"
        transform="matrix(1.1458,0,0,1.9005,-4.6675,-28.8174)"
  />
  <path style="fill:#000000"
        d="M27.48 42.87C29.58 42.87 33.79 42.85 35.83 43.4C36.03 43.45 35.83 44.25 35.83 44.25H27.48C27.48 44.25 26.83 42.87 27.48 42.87z"
        transform="matrix(1.1458,0,0,1.9005,-4.6675,-28.8174)"
  />
  <path style="fill:none; stroke:#000000; stroke-width:0.0981"
        d="M27.48 42.87C29.58 42.87 33.79 42.85 35.83 43.4C36.03 43.45 35.83 44.25 35.83 44.25H27.48C27.48 44.25 26.83 42.87 27.48 42.87z"
        transform="matrix(1.1458,0,0,1.9005,-4.6675,-28.8174)"
  />
  <path style="fill:#000000"
        d="M32.33 44.99C31.93 44.99 31.13 44.98 30.74 45.17C30.71 45.19 30.74 45.46 30.74 45.46H32.33C32.33 45.46 32.45 44.99 32.33 44.99z"
        transform="matrix(1.1458,0,0,1.9005,-4.6675,-28.8174)"
  />
  <path style="fill:none; stroke:#000000; stroke-width:0.0981"
        d="M32.33 44.99C31.93 44.99 31.13 44.98 30.74 45.17C30.71 45.19 30.74 45.46 30.74 45.46H32.33C32.33 45.46 32.45 44.99 32.33 44.99z"
        transform="matrix(1.1458,0,0,1.9005,-4.6675,-28.8174)"
  />
 </g>
</svg>
